<?xml version="1.0" standalone="no"?>
<!DOCTYPE svg PUBLIC "-//W3C//DTD SVG 20010904//EN"
 "http://www.w3.org/TR/2001/REC-SVG-20010904/DTD/svg10.dtd">
<svg version="1.0" xmlns="http://www.w3.org/2000/svg"
 width="612.000000pt" height="612.000000pt" viewBox="0 0 612.000000 612.000000"
 preserveAspectRatio="xMidYMid meet">

<g transform="translate(0.000000,612.000000) scale(0.100000,-0.100000)"
fill="#000000" stroke="none">
<path d="M0 3060 l0 -3060 3060 0 3060 0 0 3060 0 3060 -3060 0 -3060 0 0
-3060z m1422 2375 l3 -475 33 -32 32 -33 203 -3 204 -3 17 -49 c21 -59 97
-179 156 -248 211 -245 563 -358 890 -286 271 60 514 262 626 519 l28 65 184
0 c197 0 235 7 266 51 14 21 16 75 16 496 l0 473 515 0 515 0 0 -95 c0 -90 -1
-95 -22 -99 -13 -2 -66 -12 -118 -21 -360 -63 -657 -342 -761 -715 -21 -74
-24 -106 -23 -245 1 -144 3 -169 28 -250 104 -347 373 -606 710 -685 48 -11
102 -20 121 -20 69 0 65 19 65 -311 l0 -299 -720 0 -720 0 -5 28 c-45 215
-110 349 -235 485 -249 272 -651 370 -993 241 -215 -80 -406 -252 -510 -459
-26 -53 -72 -195 -82 -257 l-6 -38 -814 0 -815 0 0 1370 0 1370 605 0 604 0 3
-475z m640 208 c3 -292 6 -305 64 -331 18 -9 193 -12 625 -12 643 0 646 0 676
49 9 14 13 97 13 290 l1 271 215 0 214 0 0 -405 0 -405 -1115 0 -1115 0 0 405
0 405 209 0 210 0 3 -267z m1172 70 l-1 -198 -482 -3 -481 -2 0 200 0 200 483
0 482 0 -1 -197z m2195 -260 c81 -32 131 -62 131 -76 0 -22 -43 -222 -50 -229
-8 -10 -300 18 -312 30 -10 10 -80 203 -75 208 1 2 45 26 97 54 105 55 103 55
209 13z m-549 -152 l54 -6 38 -105 38 -105 -46 -105 c-25 -58 -62 -143 -81
-189 l-36 -83 -51 5 c-28 3 -90 9 -138 13 -81 6 -87 8 -97 33 -9 21 -47 144
-91 293 -7 23 -1 39 39 100 27 40 69 94 95 119 l47 45 87 -4 c48 -2 112 -7
142 -11z m946 -204 c43 -82 71 -174 84 -283 12 -93 7 -116 -24 -112 -15 2 -42
42 -107 162 l-85 160 13 60 c8 34 19 79 24 100 l11 39 23 -29 c14 -16 41 -60
61 -97z m-323 -174 c-7 -2 -19 -2 -25 0 -7 3 -2 5 12 5 14 0 19 -2 13 -5z
m-2123 -38 c0 -22 -62 -116 -114 -174 -75 -82 -227 -170 -344 -197 -86 -21
-247 -21 -333 -1 -182 44 -357 175 -447 336 l-23 41 630 0 c347 0 631 -2 631
-5z m1403 -374 l59 -6 74 -134 74 -133 -82 -89 c-44 -49 -84 -89 -89 -89 -32
0 -183 114 -239 180 l-43 51 13 112 c7 62 15 116 17 120 5 8 70 4 216 -12z
m1052 -105 c-21 -41 -49 -87 -62 -103 -24 -27 -8 7 70 149 38 69 31 29 -8 -46z
m-322 -83 c-13 -2 -33 -2 -45 0 -13 2 -3 4 22 4 25 0 35 -2 23 -4z m-130 -210
c120 -5 137 -8 137 -23 0 -19 -55 -46 -162 -80 -79 -25 -291 -39 -303 -20 -5
8 13 33 51 71 67 67 47 64 277 52z m-2438 -371 c190 -51 351 -185 444 -370 28
-56 61 -157 61 -189 0 -11 -134 -13 -696 -13 l-697 0 7 46 c3 25 20 77 37 117
103 235 293 382 559 431 50 9 217 -4 285 -22z m2308 21 c-7 -2 -19 -2 -25 0
-7 3 -2 5 12 5 14 0 19 -2 13 -5z m-3408 -850 c13 -78 58 -210 96 -281 289
-541 1000 -658 1447 -238 126 119 244 328 266 476 4 25 10 53 12 63 5 16 48
17 725 17 l719 0 0 -1370 0 -1370 -515 0 -515 0 0 475 0 475 -29 32 -29 33
-205 3 -205 3 -18 47 c-9 26 -36 79 -59 117 -203 337 -598 504 -985 419 -177
-40 -353 -145 -482 -289 -56 -62 -138 -194 -157 -252 l-14 -42 -203 -3 -204
-3 -32 -33 -33 -32 -3 -475 -3 -475 -604 0 -605 0 0 1370 0 1370 815 0 814 0
6 -37z m1605 19 c0 -54 -65 -208 -118 -282 -143 -196 -343 -296 -587 -294
-203 2 -365 72 -506 220 -86 91 -163 234 -175 328 l-7 46 697 0 c666 0 696 -1
696 -18z m-523 -1328 c128 -28 286 -128 369 -233 40 -50 84 -121 84 -136 0 -3
-284 -5 -631 -5 l-630 0 23 41 c64 115 178 222 301 282 151 74 308 91 484 51z
m943 -989 l0 -405 -215 0 -215 0 0 273 c0 264 -1 274 -21 296 -11 12 -32 26
-46 32 -36 13 -1201 12 -1241 -2 -64 -22 -67 -35 -70 -332 l-3 -267 -210 0
-209 0 0 398 c0 219 3 402 7 405 3 4 505 7 1115 7 l1108 0 0 -405z m-636 -208
l1 -197 -482 0 -483 0 0 200 0 200 482 -2 481 -3 1 -198z"/>
</g>
</svg>
